<svg width="15" height="14" viewBox="0 0 15 14" fill="none" xmlns="http://www.w3.org/2000/svg">
<path d="M7.89239 0.266527C7.79174 0.156452 7.6495 0.09375 7.50033 0.09375C7.35115 0.09375 7.20892 0.156452 7.10827 0.266527L4.27492 3.36548C4.07694 3.58202 4.09199 3.91806 4.30852 4.11603C4.52507 4.31401 4.86109 4.29897 5.05907 4.08243L6.96908 1.99336V9.83333C6.96908 10.1267 7.20694 10.3646 7.50033 10.3646C7.79372 10.3646 8.03158 10.1267 8.03158 9.83333V1.99336L9.9416 4.08243C10.1396 4.29897 10.4756 4.31401 10.6922 4.11603C10.9087 3.91806 10.9237 3.58202 10.7257 3.36548L7.89239 0.266527Z" fill="white"/>
<path d="M1.65625 9.125C1.65625 8.83161 1.41841 8.59375 1.125 8.59375C0.831602 8.59375 0.59375 8.83161 0.59375 9.125V9.16389C0.593736 10.1326 0.593722 10.9134 0.676285 11.5275C0.762008 12.1651 0.945388 12.7019 1.37175 13.1282C1.79811 13.5546 2.33493 13.738 2.97251 13.8237C3.58661 13.9062 4.36742 13.9062 5.33613 13.9062H9.66389C10.6326 13.9062 11.4134 13.9062 12.0275 13.8237C12.6651 13.738 13.2019 13.5546 13.6283 13.1282C14.0546 12.7019 14.238 12.1651 14.3237 11.5275C14.4062 10.9134 14.4062 10.1326 14.4062 9.16389V9.125C14.4062 8.83161 14.1684 8.59375 13.875 8.59375C13.5816 8.59375 13.3438 8.83161 13.3438 9.125C13.3438 10.1417 13.3426 10.8509 13.2707 11.3859C13.2008 11.9057 13.073 12.1809 12.877 12.377C12.6809 12.573 12.4057 12.7008 11.8859 12.7707C11.3509 12.8426 10.6417 12.8438 9.625 12.8438H5.375C4.35825 12.8438 3.64912 12.8426 3.11409 12.7707C2.59433 12.7008 2.31909 12.573 2.12305 12.377C1.92701 12.1809 1.79919 11.9057 1.72931 11.3859C1.65738 10.8509 1.65625 10.1417 1.65625 9.125Z" fill="white"/>
</svg>
